<svg id="Layer_1" data-name="Layer 1" xmlns="http://www.w3.org/2000/svg" viewBox="0 0 841.89 595.28"><defs><style>.cls-1{font-size:62.6px;fill:#312783;stroke:#312783;stroke-miterlimit:10;stroke-width:3px;font-family:FTPContaria, FTP - Contaria;letter-spacing:0.1em;}.cls-2{fill:#2d2e83;}</style></defs><text class="cls-1" transform="translate(284.39 431.92)">dot limpid</text><path class="cls-2" d="M454,189.29V327.9H423.23v50.28h-10.6V326.93a24.24,24.24,0,0,0,0-46.57V189.29Z"/><rect class="cls-2" x="430.11" y="334.42" width="121.54" height="41.01"/><path class="cls-2" d="M404.84,327.85v45a72.47,72.47,0,0,1-17.51,3.85,72.55,72.55,0,0,1-55.54-18.27,71.84,71.84,0,0,1-18.49-26.54A74.31,74.31,0,0,1,310,290.09a65.35,65.35,0,0,1,1.75-6.71c.09-.29.18-.59.28-.88A71.38,71.38,0,0,1,318.56,268a73,73,0,0,1,34-29.45,72,72,0,0,1,31.68-5.43,73.27,73.27,0,0,1,20.78,4.2c-.12,14.07-.18,28.12-.3,42.17a24.25,24.25,0,0,0-23,24.06,54.89,54.89,0,0,1-14.72,2.5c-4.23.12-17.36.41-29.94-7.34-11.79-7.29-16.6-17.61-19.51-16.14a2.23,2.23,0,0,0-1,1.38c-.71,2.18-.12,6.26,1,9.38,3.23,9,12,13.22,18.36,16.1,5.35,2.44,23.72,10.82,44.11,2.82,1-.38,1.94-.79,2.85-1.2A24.29,24.29,0,0,0,404.84,327.85Z"/></svg>